<svg width="720" height="240" viewBox="0 0 720 240" fill="none" xmlns="http://www.w3.org/2000/svg" role="img" aria-labelledby="title desc">
  <title id="title">MysticCommerce Signal Crest logo</title>
  <desc id="desc">A modern shield crest forming an M, with gold accents and a polished ecommerce identity.</desc>
  <defs>
    <linearGradient id="gold" x1="58" y1="40" x2="197" y2="203" gradientUnits="userSpaceOnUse">
      <stop stop-color="#FFF3BF"/>
      <stop offset="0.48" stop-color="#D99B2B"/>
      <stop offset="1" stop-color="#8B5A13"/>
    </linearGradient>
    <linearGradient id="platinum" x1="270" y1="78" x2="648" y2="154" gradientUnits="userSpaceOnUse">
      <stop stop-color="#FFFFFF"/>
      <stop offset="1" stop-color="#B8C0CC"/>
    </linearGradient>
    <radialGradient id="core" cx="0" cy="0" r="1" gradientUnits="userSpaceOnUse" gradientTransform="translate(126 120) rotate(90) scale(82)">
      <stop stop-color="#1F2937"/>
      <stop offset="1" stop-color="#0B0C10"/>
    </radialGradient>
  </defs>
  <path d="M126 33L194 63V120C194 161 166 190 126 207C86 190 58 161 58 120V63L126 33Z" fill="url(#core)" stroke="url(#gold)" stroke-width="4" stroke-linejoin="round"/>
  <path d="M86 153V86L126 135L166 86V153" stroke="url(#gold)" stroke-width="12" stroke-linecap="round" stroke-linejoin="round"/>
  <path d="M104 93L126 68L148 93" stroke="#FDE9AA" stroke-width="7" stroke-linecap="round" stroke-linejoin="round"/>
  <path d="M82 171H170" stroke="white" stroke-opacity="0.16" stroke-width="2" stroke-linecap="round"/>
  <path d="M126 39V55" stroke="#FFF3BF" stroke-width="4" stroke-linecap="round"/>
  <text x="262" y="111" fill="url(#platinum)" font-family="Inter, Arial, sans-serif" font-size="43" font-weight="700" letter-spacing="1.2">MysticCommerce</text>
  <text x="265" y="148" fill="#D6A143" font-family="Inter, Arial, sans-serif" font-size="13" font-weight="700" letter-spacing="5">SMART GEAR. ELEVATED CHECKOUT.</text>
  <g opacity="0.5">
    <path d="M265 169H448" stroke="#D6A143" stroke-width="2" stroke-linecap="round"/>
    <path d="M468 169H650" stroke="#D6A143" stroke-width="2" stroke-linecap="round"/>
    <circle cx="458" cy="169" r="4" fill="#F6D58A"/>
  </g>
</svg>
